<svg width="18" height="21" viewBox="0 0 18 21" fill="none" xmlns="http://www.w3.org/2000/svg">
<path d="M14.25 8.075V7.25C14.25 6.45435 13.9339 5.69129 13.3713 5.12868C12.8087 4.56607 12.0456 4.25 11.25 4.25H9.75V2H12.75C12.9489 2 13.1397 2.07902 13.2803 2.21967C13.421 2.36032 13.5 2.55109 13.5 2.75C13.5 2.94891 13.579 3.13968 13.7197 3.28033C13.8603 3.42098 14.0511 3.5 14.25 3.5C14.4489 3.5 14.6397 3.42098 14.7803 3.28033C14.921 3.13968 15 2.94891 15 2.75C15 2.15326 14.7629 1.58097 14.341 1.15901C13.919 0.737053 13.3467 0.5 12.75 0.5H6.75C6.55109 0.5 6.36032 0.579018 6.21967 0.71967C6.07902 0.860322 6 1.05109 6 1.25C6 1.44891 6.07902 1.63968 6.21967 1.78033C6.36032 1.92098 6.55109 2 6.75 2H8.25V4.25H6.75C5.95435 4.25 5.19129 4.56607 4.62868 5.12868C4.06607 5.69129 3.75 6.45435 3.75 7.25V8.075C2.90354 8.24904 2.14297 8.70959 1.5965 9.37903C1.05002 10.0485 0.751056 10.8858 0.75 11.75V19.25C0.75 19.6478 0.908035 20.0294 1.18934 20.3107C1.47064 20.592 1.85218 20.75 2.25 20.75H15.75C16.1478 20.75 16.5294 20.592 16.8107 20.3107C17.092 20.0294 17.25 19.6478 17.25 19.25V11.75C17.2489 10.8858 16.95 10.0485 16.4035 9.37903C15.857 8.70959 15.0965 8.24904 14.25 8.075ZM6.75 5.75H11.25C11.6478 5.75 12.0294 5.90804 12.3107 6.18934C12.592 6.47064 12.75 6.85218 12.75 7.25V8H5.25V7.25C5.25 6.85218 5.40804 6.47064 5.68934 6.18934C5.97064 5.90804 6.35218 5.75 6.75 5.75ZM15.75 19.25H2.25V11.75C2.25 11.1533 2.48705 10.581 2.90901 10.159C3.33097 9.73705 3.90326 9.5 4.5 9.5H13.5C14.0967 9.5 14.669 9.73705 15.091 10.159C15.5129 10.581 15.75 11.1533 15.75 11.75V19.25Z" fill="#A2A2A2"/>
</svg>
