<svg width="20" height="20" viewBox="0 0 20 20" fill="none" xmlns="http://www.w3.org/2000/svg">
<path d="M6.625 11.125C6.4025 11.125 6.18499 11.059 5.99999 10.9354C5.81498 10.8118 5.67079 10.6361 5.58564 10.4305C5.50049 10.225 5.47821 9.99875 5.52162 9.78052C5.56503 9.56229 5.67217 9.36184 5.82951 9.2045C5.98684 9.04717 6.1873 8.94002 6.40553 8.89662C6.62376 8.85321 6.84996 8.87549 7.05552 8.96064C7.26109 9.04578 7.43679 9.18998 7.56041 9.37498C7.68402 9.55999 7.75 9.7775 7.75 10C7.75 10.2984 7.63148 10.5845 7.4205 10.7955C7.20952 11.0065 6.92337 11.125 6.625 11.125ZM13.375 8.875C13.1525 8.875 12.935 8.94098 12.75 9.0646C12.565 9.18821 12.4208 9.36391 12.3356 9.56948C12.2505 9.77505 12.2282 10.0012 12.2716 10.2195C12.315 10.4377 12.4222 10.6382 12.5795 10.7955C12.7368 10.9528 12.9373 11.06 13.1555 11.1034C13.3738 11.1468 13.6 11.1245 13.8055 11.0394C14.0111 10.9542 14.1868 10.81 14.3104 10.625C14.434 10.44 14.5 10.2225 14.5 10C14.5 9.70163 14.3815 9.41548 14.1705 9.2045C13.9595 8.99353 13.6734 8.875 13.375 8.875ZM12.2247 13.1153C11.5567 13.5299 10.7862 13.7496 10 13.7496C9.21383 13.7496 8.4433 13.5299 7.77532 13.1153C7.60699 13.0091 7.40338 12.9742 7.20928 13.0181C7.01518 13.0621 6.84649 13.1814 6.74032 13.3497C6.63415 13.518 6.5992 13.7216 6.64315 13.9157C6.6871 14.1098 6.80636 14.2785 6.97469 14.3847C7.88233 14.9505 8.93045 15.2504 10 15.2504C11.0696 15.2504 12.1177 14.9505 13.0253 14.3847C13.1936 14.2785 13.3129 14.1098 13.3569 13.9157C13.4008 13.7216 13.3659 13.518 13.2597 13.3497C13.1535 13.1814 12.9848 13.0621 12.7907 13.0181C12.5966 12.9742 12.393 13.0091 12.2247 13.1153ZM19.75 10C19.75 11.9284 19.1782 13.8134 18.1068 15.4168C17.0355 17.0202 15.5127 18.2699 13.7312 19.0078C11.9496 19.7458 9.98919 19.9389 8.09787 19.5627C6.20656 19.1865 4.46928 18.2579 3.10571 16.8943C1.74215 15.5307 0.813554 13.7934 0.437348 11.9021C0.061142 10.0108 0.254225 8.05042 0.992179 6.26884C1.73013 4.48726 2.97982 2.96451 4.58319 1.89317C6.18657 0.821828 8.07164 0.25 10 0.25C12.585 0.25273 15.0634 1.28084 16.8913 3.10872C18.7192 4.93661 19.7473 7.41498 19.75 10ZM18.25 10C18.2474 7.87623 17.4269 5.83506 15.9589 4.30036C14.4909 2.76565 12.4881 1.85533 10.3666 1.75844C9.28 3.28562 9.25 4.73875 9.25 4.75C9.25 4.94891 9.32902 5.13968 9.46967 5.28033C9.61033 5.42098 9.80109 5.5 10 5.5C10.1989 5.5 10.3897 5.42098 10.5303 5.28033C10.671 5.13968 10.75 4.94891 10.75 4.75C10.75 4.55109 10.829 4.36032 10.9697 4.21967C11.1103 4.07902 11.3011 4 11.5 4C11.6989 4 11.8897 4.07902 12.0303 4.21967C12.171 4.36032 12.25 4.55109 12.25 4.75C12.25 5.34674 12.013 5.91903 11.591 6.34099C11.169 6.76295 10.5967 7 10 7C9.40327 7 8.83097 6.76295 8.40901 6.34099C7.98706 5.91903 7.75 5.34674 7.75 4.75C7.75 4.68156 7.76219 3.40937 8.54313 1.87844C6.99846 2.15557 5.56488 2.86752 4.41061 3.93074C3.25633 4.99396 2.42926 6.36435 2.02643 7.8811C1.6236 9.39785 1.66173 10.998 2.13635 12.4939C2.61097 13.9897 3.50238 15.3191 4.70599 16.3262C5.9096 17.3332 7.37546 17.9761 8.93158 18.1793C10.4877 18.3825 12.0695 18.1377 13.4914 17.4736C14.9132 16.8095 16.1162 15.7536 16.9591 14.4298C17.8019 13.106 18.2498 11.5693 18.25 10Z" fill="#A2A2A2"/>
</svg>
