<svg width="24" height="18" viewBox="0 0 24 18" fill="none" xmlns="http://www.w3.org/2000/svg">
<path d="M23.2115 2.73938L18.359 0.09375C18.2491 0.0329152 18.1256 0.000678433 17.9999 0H14.9999C14.801 0 14.6103 0.0790178 14.4696 0.21967C14.329 0.360322 14.2499 0.551088 14.2499 0.75C14.2499 1.34674 14.0129 1.91903 13.5909 2.34099C13.169 2.76295 12.5967 3 11.9999 3C11.4032 3 10.8309 2.76295 10.4089 2.34099C9.98699 1.91903 9.74994 1.34674 9.74994 0.75C9.74994 0.551088 9.67092 0.360322 9.53027 0.21967C9.38962 0.0790178 9.19885 0 8.99994 0H5.99994C5.87397 0.000521314 5.75016 0.0327631 5.63994 0.09375L0.788376 2.73938C0.442533 2.92214 0.183281 3.2346 0.0674665 3.60823C-0.0483479 3.98186 -0.0112725 4.38617 0.170563 4.7325L1.97713 8.18344C2.10848 8.43155 2.30538 8.63887 2.54639 8.78284C2.78739 8.92682 3.06327 9.00193 3.344 9H5.24994V16.5C5.24994 16.8978 5.40797 17.2794 5.68928 17.5607C5.97058 17.842 6.35211 18 6.74994 18H17.2499C17.6478 18 18.0293 17.842 18.3106 17.5607C18.5919 17.2794 18.7499 16.8978 18.7499 16.5V9H20.6568C20.9375 9.00193 21.2134 8.92682 21.4544 8.78284C21.6954 8.63887 21.8923 8.43155 22.0237 8.18344L23.8302 4.7325C24.012 4.38605 24.049 3.98165 23.933 3.60801C23.817 3.23437 23.5575 2.92198 23.2115 2.73938ZM3.344 7.5C3.33014 7.50065 3.31651 7.49633 3.30556 7.48781L1.50838 4.05562L5.24994 2.01375V7.5H3.344ZM17.2499 16.5H6.74994V1.5H8.32494C8.49797 2.34671 8.95815 3.10767 9.62763 3.65417C10.2971 4.20066 11.1348 4.49916 11.999 4.49916C12.8632 4.49916 13.7009 4.20066 14.3704 3.65417C15.0399 3.10767 15.5 2.34671 15.6731 1.5H17.2499V16.5ZM20.6952 7.48688C20.6901 7.49155 20.684 7.49513 20.6774 7.49738C20.6708 7.49964 20.6638 7.50053 20.6568 7.5H18.7499V2.01375L22.4924 4.05562L20.6952 7.48688Z" fill="#A2A2A2"/>
</svg>
