<svg width="22" height="17" viewBox="0 0 22 17" fill="none" xmlns="http://www.w3.org/2000/svg">
<path d="M20.75 11.75H20V2.75C20 2.15326 19.7629 1.58097 19.341 1.15901C18.919 0.737053 18.3467 0.5 17.75 0.5H4.25C3.65326 0.5 3.08097 0.737053 2.65901 1.15901C2.23705 1.58097 2 2.15326 2 2.75V11.75H1.25C1.05109 11.75 0.860322 11.829 0.71967 11.9697C0.579018 12.1103 0.5 12.3011 0.5 12.5V14C0.5 14.5967 0.737053 15.169 1.15901 15.591C1.58097 16.0129 2.15326 16.25 2.75 16.25H19.25C19.8467 16.25 20.419 16.0129 20.841 15.591C21.2629 15.169 21.5 14.5967 21.5 14V12.5C21.5 12.3011 21.421 12.1103 21.2803 11.9697C21.1397 11.829 20.9489 11.75 20.75 11.75ZM3.5 2.75C3.5 2.55109 3.57902 2.36032 3.71967 2.21967C3.86032 2.07902 4.05109 2 4.25 2H17.75C17.9489 2 18.1397 2.07902 18.2803 2.21967C18.421 2.36032 18.5 2.55109 18.5 2.75V11.75H3.5V2.75ZM20 14C20 14.1989 19.921 14.3897 19.7803 14.5303C19.6397 14.671 19.4489 14.75 19.25 14.75H2.75C2.55109 14.75 2.36032 14.671 2.21967 14.5303C2.07902 14.3897 2 14.1989 2 14V13.25H20V14ZM13.25 4.25C13.25 4.44891 13.171 4.63968 13.0303 4.78033C12.8897 4.92098 12.6989 5 12.5 5H9.5C9.30109 5 9.11032 4.92098 8.96967 4.78033C8.82902 4.63968 8.75 4.44891 8.75 4.25C8.75 4.05109 8.82902 3.86032 8.96967 3.71967C9.11032 3.57902 9.30109 3.5 9.5 3.5H12.5C12.6989 3.5 12.8897 3.57902 13.0303 3.71967C13.171 3.86032 13.25 4.05109 13.25 4.25Z" fill="#A2A2A2"/>
</svg>
