<svg width="18" height="20" viewBox="0 0 18 20" fill="none" xmlns="http://www.w3.org/2000/svg">
<path d="M16.5 10.75H13.5V7.75H15C15.3978 7.75 15.7794 7.59196 16.0607 7.31066C16.342 7.02936 16.5 6.64782 16.5 6.25V1.75C16.5 1.35218 16.342 0.970644 16.0607 0.68934C15.7794 0.408035 15.3978 0.25 15 0.25H3C2.60218 0.25 2.22064 0.408035 1.93934 0.68934C1.65804 0.970644 1.5 1.35218 1.5 1.75V6.25C1.5 6.64782 1.65804 7.02936 1.93934 7.31066C2.22064 7.59196 2.60218 7.75 3 7.75H4.5V10.75H1.5C1.10218 10.75 0.720644 10.908 0.43934 11.1893C0.158035 11.4706 0 11.8522 0 12.25V13.75C0 14.1478 0.158035 14.5294 0.43934 14.8107C0.720644 15.092 1.10218 15.25 1.5 15.25H2.25V19C2.25 19.1989 2.32902 19.3897 2.46967 19.5303C2.61032 19.671 2.80109 19.75 3 19.75C3.19891 19.75 3.38968 19.671 3.53033 19.5303C3.67098 19.3897 3.75 19.1989 3.75 19V15.25H14.25V19C14.25 19.1989 14.329 19.3897 14.4697 19.5303C14.6103 19.671 14.8011 19.75 15 19.75C15.1989 19.75 15.3897 19.671 15.5303 19.5303C15.671 19.3897 15.75 19.1989 15.75 19V15.25H16.5C16.8978 15.25 17.2794 15.092 17.5607 14.8107C17.842 14.5294 18 14.1478 18 13.75V12.25C18 11.8522 17.842 11.4706 17.5607 11.1893C17.2794 10.908 16.8978 10.75 16.5 10.75ZM3 1.75H15V6.25H3V1.75ZM6 7.75H12V10.75H6V7.75ZM16.5 13.75H1.5V12.25H16.5V13.75Z" fill="#A2A2A2"/>
</svg>
