<svg width="22" height="21" viewBox="0 0 22 21" fill="none" xmlns="http://www.w3.org/2000/svg">
<path d="M21.4569 3.90627C21.4107 3.71428 21.3269 3.53337 21.2102 3.37405C21.0935 3.21472 20.9464 3.08016 20.7773 2.97815C17.8281 1.19409 14.4469 0.250977 11.0001 0.250977C7.55323 0.250977 4.17209 1.19409 1.22289 2.97815C1.05428 3.0804 0.907493 3.2149 0.79092 3.37394C0.674346 3.53298 0.590274 3.71345 0.543515 3.90501C0.496756 4.09658 0.488227 4.29548 0.518415 4.49035C0.548603 4.68521 0.616917 4.87221 0.719448 5.04065L9.71945 19.7847C9.85315 20.0051 10.0414 20.1874 10.2661 20.3138C10.4907 20.4403 10.7441 20.5068 11.0019 20.5068C11.2598 20.5068 11.5132 20.4403 11.7378 20.3138C11.9625 20.1874 12.1507 20.0051 12.2844 19.7847L21.2844 5.04065C21.3871 4.8725 21.4552 4.68559 21.4848 4.49082C21.5145 4.29605 21.505 4.09734 21.4569 3.90627ZM4.96164 9.1094C5.20533 8.87974 5.49721 8.70737 5.81599 8.60486C6.13477 8.50236 6.47241 8.47229 6.80429 8.51687C7.13616 8.56144 7.45391 8.67953 7.73434 8.86252C8.01477 9.04551 8.25083 9.28879 8.42529 9.57461C8.59974 9.86043 8.70821 10.1816 8.74276 10.5147C8.77732 10.8477 8.7371 11.1843 8.62503 11.4998C8.51296 11.8154 8.33188 12.102 8.09498 12.3386C7.85809 12.5753 7.57136 12.7561 7.2557 12.8678L4.96164 9.1094ZM13.2041 15.386C12.8286 15.0318 12.5862 14.5593 12.5177 14.0476C12.4491 13.536 12.5586 13.0163 12.8278 12.5758C13.0969 12.1353 13.5094 11.8008 13.9959 11.6283C14.4825 11.4558 15.0136 11.4559 15.5001 11.6285L13.2041 15.386ZM16.2913 10.33C15.4577 9.95165 14.5145 9.89129 13.6394 10.1603C12.7644 10.4293 12.018 11.0092 11.5409 11.7905C11.0638 12.5718 10.889 13.5007 11.0495 14.402C11.2099 15.3033 11.6945 16.1148 12.4119 16.6835L11.0001 19L8.04695 14.1653C8.53178 13.9469 8.9646 13.6278 9.31669 13.2292C9.66877 12.8307 9.93207 12.3618 10.0891 11.8537C10.2461 11.3457 10.2933 10.81 10.2275 10.2823C10.1617 9.75462 9.98437 9.24695 9.70735 8.79302C9.43034 8.33908 9.05995 7.94925 8.62076 7.6494C8.18157 7.34955 7.68363 7.14654 7.15999 7.05384C6.63634 6.96114 6.09897 6.98088 5.58354 7.11174C5.0681 7.24259 4.5864 7.48158 4.17039 7.81284L3.57507 6.8369C5.81104 5.47202 8.37998 4.74991 10.9996 4.74991C13.6192 4.74991 16.1882 5.47202 18.4241 6.8369L16.2913 10.33ZM19.2069 5.55534C16.735 4.04768 13.8955 3.2501 11.0001 3.2501C8.10464 3.2501 5.26515 4.04768 2.7932 5.55534L2.00007 4.25971C4.71529 2.61872 7.82749 1.75132 11.0001 1.75132C14.1727 1.75132 17.2849 2.61872 20.0001 4.25971L19.2069 5.55534Z" fill="#A2A2A2"/>
</svg>
