<svg width="24" height="18" viewBox="0 0 24 18" fill="none" xmlns="http://www.w3.org/2000/svg">
<path d="M16.5 7.5H14.25C14.0511 7.5 13.8603 7.42098 13.7196 7.28033C13.579 7.13968 13.5 6.94891 13.5 6.75C13.5 6.55109 13.579 6.36032 13.7196 6.21967C13.8603 6.07902 14.0511 6 14.25 6H16.5C16.6989 6 16.8897 6.07902 17.0303 6.21967C17.171 6.36032 17.25 6.55109 17.25 6.75C17.25 6.94891 17.171 7.13968 17.0303 7.28033C16.8897 7.42098 16.6989 7.5 16.5 7.5ZM9.74997 6H8.99997V5.25C8.99997 5.05109 8.92095 4.86032 8.7803 4.71967C8.63965 4.57902 8.44888 4.5 8.24997 4.5C8.05106 4.5 7.86029 4.57902 7.71964 4.71967C7.57899 4.86032 7.49997 5.05109 7.49997 5.25V6H6.74997C6.55106 6 6.36029 6.07902 6.21964 6.21967C6.07899 6.36032 5.99997 6.55109 5.99997 6.75C5.99997 6.94891 6.07899 7.13968 6.21964 7.28033C6.36029 7.42098 6.55106 7.5 6.74997 7.5H7.49997V8.25C7.49997 8.44891 7.57899 8.63968 7.71964 8.78033C7.86029 8.92098 8.05106 9 8.24997 9C8.44888 9 8.63965 8.92098 8.7803 8.78033C8.92095 8.63968 8.99997 8.44891 8.99997 8.25V7.5H9.74997C9.94888 7.5 10.1397 7.42098 10.2803 7.28033C10.421 7.13968 10.5 6.94891 10.5 6.75C10.5 6.55109 10.421 6.36032 10.2803 6.21967C10.1397 6.07902 9.94888 6 9.74997 6ZM22.6387 15.8109C22.3561 16.2146 21.9884 16.5514 21.5617 16.7978C21.1349 17.0442 20.6594 17.1941 20.1685 17.2371C19.6776 17.2801 19.1833 17.2151 18.7202 17.0466C18.2572 16.8781 17.8366 16.6103 17.4881 16.2619C17.4768 16.2506 17.4656 16.2394 17.4553 16.2272L13.7325 12H10.2637L6.54466 16.2272L6.51185 16.2619C5.87829 16.8941 5.01999 17.2494 4.12497 17.25C3.63226 17.2498 3.14556 17.1418 2.69906 16.9334C2.25257 16.7251 1.85711 16.4215 1.54046 16.044C1.22381 15.6665 0.993658 15.2242 0.866165 14.7483C0.738672 14.2724 0.716932 13.7743 0.802473 13.2891C0.802021 13.2847 0.802021 13.2803 0.802473 13.2759L2.33716 5.3925C2.56556 4.09225 3.2449 2.91409 4.25581 2.06504C5.26671 1.21599 6.5445 0.750374 7.86466 0.75H16.125C17.4411 0.7521 18.715 1.21506 19.7254 2.05849C20.7358 2.90193 21.419 4.07258 21.6562 5.36719C21.6562 5.37281 21.6562 5.37844 21.6562 5.38406L23.1909 13.275C23.1914 13.2794 23.1914 13.2838 23.1909 13.2881C23.2703 13.7243 23.2624 14.1718 23.1676 14.6049C23.0729 15.0379 22.8931 15.4479 22.6387 15.8109ZM16.125 10.5C17.219 10.5 18.2682 10.0654 19.0418 9.29182C19.8154 8.51823 20.25 7.46902 20.25 6.375C20.25 5.28098 19.8154 4.23177 19.0418 3.45818C18.2682 2.6846 17.219 2.25 16.125 2.25H7.86466C6.89618 2.25087 5.95902 2.59325 5.21807 3.21691C4.47712 3.84057 3.97984 4.70556 3.81372 5.65969V5.67188L2.2781 13.5553C2.21022 13.9461 2.26805 14.3484 2.44326 14.7043C2.61848 15.0602 2.90206 15.3514 3.25321 15.5359C3.60436 15.7204 4.00498 15.7889 4.39747 15.7313C4.78996 15.6738 5.15408 15.4932 5.43747 15.2156L9.36747 10.7541C9.43784 10.6742 9.52439 10.6103 9.62138 10.5665C9.71836 10.5227 9.82355 10.5 9.92997 10.5H16.125ZM21.7218 13.5553L20.9025 9.33656C20.3985 10.1503 19.6953 10.822 18.8593 11.2881C18.0232 11.7542 17.0821 11.9992 16.125 12H15.7312L18.5625 15.2166C18.7759 15.4242 19.0356 15.5783 19.3201 15.6661C19.6047 15.7539 19.906 15.773 20.1993 15.7219C20.6881 15.6356 21.1226 15.3591 21.4078 14.953C21.6931 14.5469 21.8056 14.0443 21.7209 13.5553H21.7218Z" fill="#A2A2A2"/>
</svg>
