<svg width="24" height="19" viewBox="0 0 24 19" fill="none" xmlns="http://www.w3.org/2000/svg">
<path d="M23.0625 6.25594L17.8125 0.255937C17.7423 0.175765 17.6558 0.111472 17.5589 0.0673399C17.4619 0.0232083 17.3566 0.000251947 17.25 0H6.75002C6.64346 0.000251947 6.53818 0.0232083 6.44118 0.0673399C6.34419 0.111472 6.25772 0.175765 6.18752 0.255937L0.93752 6.25594C0.815042 6.39577 0.748858 6.57611 0.751803 6.76197C0.754748 6.94784 0.826611 7.12599 0.953457 7.26188L11.4535 18.5119C11.5236 18.5871 11.6085 18.6471 11.7029 18.6881C11.7972 18.7291 11.899 18.7503 12.0019 18.7503C12.1048 18.7503 12.2066 18.7291 12.3009 18.6881C12.3953 18.6471 12.4802 18.5871 12.5503 18.5119L23.0503 7.26188C23.1767 7.12552 23.2478 6.94712 23.2501 6.76125C23.2523 6.57539 23.1855 6.39531 23.0625 6.25594ZM20.8472 6H16.875L13.5 1.5H16.9097L20.8472 6ZM6.99189 7.5L9.81658 14.5622L3.22596 7.5H6.99189ZM15.3919 7.5L12 15.9806L8.60814 7.5H15.3919ZM9.00002 6L12 1.99969L15 6H9.00002ZM17.0081 7.5H20.7741L14.1835 14.5622L17.0081 7.5ZM7.09033 1.5H10.5L7.12502 6H3.15283L7.09033 1.5Z" fill="#A2A2A2"/>
</svg>
