<svg width="21" height="21" viewBox="0 0 21 21" fill="none" xmlns="http://www.w3.org/2000/svg">
<path d="M7.45226 4.93406C7.27611 4.75837 7.05854 4.62988 6.81964 4.56045C6.58074 4.49101 6.3282 4.48287 6.08532 4.53677C5.84244 4.59067 5.61705 4.70488 5.42994 4.86885C5.24284 5.03283 5.10005 5.24129 5.01476 5.475L0.0938206 19.0106C0.0129813 19.2338 -0.0131307 19.4732 0.0176762 19.7086C0.0484832 19.944 0.13531 20.1685 0.270868 20.3634C0.406426 20.5583 0.58676 20.7178 0.79673 20.8286C1.0067 20.9394 1.24018 20.9981 1.47757 21C1.65235 20.9988 1.82559 20.9671 1.98945 20.9062L15.5241 15.9844C15.7579 15.8992 15.9665 15.7565 16.1305 15.5694C16.2946 15.3824 16.4089 15.157 16.4629 14.9141C16.5169 14.6712 16.5089 14.4186 16.4395 14.1797C16.3701 13.9407 16.2417 13.7231 16.066 13.5469L7.45226 4.93406ZM6.67132 17.61L3.39007 14.3287L4.62382 10.9341L10.066 16.3762L6.67132 17.61ZM1.51507 19.485L2.82757 15.8841L5.11976 18.1763L1.51507 19.485ZM11.6251 15.81L5.19007 9.375L6.40882 6.01219L14.9804 14.5837L11.6251 15.81ZM12.0001 6.75C12.0142 6.24297 12.1369 5.74488 12.3601 5.28937C12.8569 4.29656 13.7944 3.75 15.0001 3.75C15.6282 3.75 16.0313 3.53531 16.2798 3.07406C16.4106 2.81601 16.4856 2.53333 16.5001 2.24437C16.5008 2.04546 16.5805 1.85499 16.7217 1.71487C16.8629 1.57474 17.054 1.49644 17.2529 1.49719C17.4518 1.49793 17.6423 1.57767 17.7824 1.71885C17.9225 1.86003 18.0008 2.05109 18.0001 2.25C18.0001 3.45563 17.2013 5.25 15.0001 5.25C14.3719 5.25 13.9688 5.46469 13.7204 5.92594C13.5896 6.18399 13.5145 6.46667 13.5001 6.75562C13.4997 6.85412 13.4799 6.95157 13.4419 7.04242C13.4039 7.13328 13.3483 7.21575 13.2784 7.28513C13.2085 7.35451 13.1256 7.40945 13.0345 7.4468C12.9433 7.48415 12.8457 7.50318 12.7473 7.50281C12.6488 7.50244 12.5513 7.48268 12.4605 7.44465C12.3696 7.40661 12.2871 7.35106 12.2177 7.28115C12.1484 7.21125 12.0934 7.12836 12.0561 7.03723C12.0187 6.94609 11.9997 6.84849 12.0001 6.75ZM9.75007 3.75V1.5C9.75007 1.30109 9.82909 1.11032 9.96974 0.96967C10.1104 0.829018 10.3012 0.75 10.5001 0.75C10.699 0.75 10.8897 0.829018 11.0304 0.96967C11.1711 1.11032 11.2501 1.30109 11.2501 1.5V3.75C11.2501 3.94891 11.1711 4.13968 11.0304 4.28033C10.8897 4.42098 10.699 4.5 10.5001 4.5C10.3012 4.5 10.1104 4.42098 9.96974 4.28033C9.82909 4.13968 9.75007 3.94891 9.75007 3.75ZM19.2807 11.4694C19.3503 11.5391 19.4055 11.6218 19.4432 11.7128C19.4808 11.8038 19.5002 11.9014 19.5002 11.9999C19.5001 12.0984 19.4807 12.1959 19.4429 12.2869C19.4052 12.3779 19.3499 12.4605 19.2802 12.5302C19.2105 12.5998 19.1278 12.655 19.0368 12.6926C18.9458 12.7303 18.8482 12.7497 18.7497 12.7496C18.6512 12.7496 18.5537 12.7301 18.4627 12.6924C18.3717 12.6547 18.2891 12.5994 18.2194 12.5297L16.7194 11.0297C16.5787 10.889 16.4997 10.6981 16.4997 10.4991C16.4997 10.3 16.5787 10.1092 16.7194 9.96844C16.8602 9.82771 17.051 9.74865 17.2501 9.74865C17.4491 9.74865 17.64 9.82771 17.7807 9.96844L19.2807 11.4694ZM19.7373 7.46156L17.4873 8.21156C17.2985 8.27447 17.0926 8.25983 16.9146 8.17087C16.7367 8.0819 16.6014 7.92591 16.5385 7.73719C16.4756 7.54847 16.4902 7.34249 16.5792 7.16457C16.6682 6.98664 16.8242 6.85134 17.0129 6.78844L19.2629 6.03844C19.4516 5.97553 19.6576 5.99017 19.8355 6.07913C20.0134 6.1681 20.1487 6.32409 20.2116 6.51281C20.2745 6.70153 20.2599 6.90751 20.1709 7.08543C20.082 7.26336 19.926 7.39866 19.7373 7.46156Z" fill="#A2A2A2"/>
</svg>
