<svg width="20" height="18" viewBox="0 0 20 18" fill="none" xmlns="http://www.w3.org/2000/svg">
<path d="M19.4613 1.65842C19.3714 1.58842 19.2668 1.53979 19.1554 1.51624C19.0439 1.49269 18.9286 1.49482 18.8181 1.52248L13.0872 2.95498L7.33563 0.0787325C7.17537 -0.00119902 6.99181 -0.0211515 6.81812 0.0224826L0.818125 1.52248C0.65587 1.56304 0.511827 1.65667 0.408889 1.78848C0.305951 1.9203 0.250025 2.08274 0.25 2.24998V15.75C0.250017 15.8639 0.276005 15.9764 0.325991 16.0788C0.375976 16.1812 0.448644 16.2709 0.538475 16.341C0.628306 16.4112 0.732937 16.4599 0.844422 16.4836C0.955907 16.5072 1.07131 16.5051 1.18187 16.4775L6.91281 15.045L12.6644 17.9212C12.7688 17.9727 12.8836 17.9996 13 18C13.0613 17.9999 13.1224 17.9924 13.1819 17.9775L19.1819 16.4775C19.3441 16.4369 19.4882 16.3433 19.5911 16.2115C19.694 16.0797 19.75 15.9172 19.75 15.75V2.24998C19.75 2.13591 19.724 2.02334 19.674 1.92083C19.624 1.81832 19.5512 1.72857 19.4613 1.65842ZM7.75 1.96311L12.25 4.21311V16.0369L7.75 13.7869V1.96311ZM1.75 2.83592L6.25 1.71092V13.664L1.75 14.789V2.83592ZM18.25 15.164L13.75 16.289V4.33592L18.25 3.21092V15.164Z" fill="#A2A2A2"/>
</svg>
