<svg width="164" height="24" viewBox="0 0 164 24" fill="none" xmlns="http://www.w3.org/2000/svg">
<g id="logo">
<g id="Coupon">
<path d="M69.8284 18.4277C71.0276 18.8953 72.3274 19.1292 73.728 19.1292C75.251 19.1292 76.6341 18.8645 77.877 18.335C79.12 17.8056 80.1704 17.0379 81.0282 16.032L78.8224 13.9142C78.1571 14.6554 77.4131 15.2069 76.5903 15.5687C75.7675 15.9305 74.8747 16.1114 73.9118 16.1114C72.9489 16.1114 72.0692 15.9525 71.2727 15.6349C70.4761 15.3172 69.7846 14.8672 69.1981 14.2848C68.6116 13.7024 68.1565 13.0141 67.8326 12.22C67.5087 11.4258 67.3468 10.5523 67.3468 9.59926C67.3468 8.64627 67.5087 7.77269 67.8326 6.97853C68.1565 6.18437 68.6116 5.4961 69.1981 4.91371C69.7846 4.33133 70.4761 3.88131 71.2727 3.56364C72.0692 3.24598 72.9489 3.08715 73.9118 3.08715C74.8747 3.08715 75.7675 3.26804 76.5903 3.62982C77.4131 3.99161 78.1571 4.53428 78.8224 5.25785L81.0282 3.16656C80.1704 2.14298 79.12 1.37088 77.877 0.85026C76.6341 0.329644 75.2598 0.0693359 73.7542 0.0693359C72.3362 0.0693359 71.0319 0.303172 69.8415 0.770844C68.651 1.23852 67.6094 1.90032 66.7166 2.75624C65.8237 3.61217 65.1322 4.62252 64.642 5.78729C64.1518 6.95206 63.9067 8.22271 63.9067 9.59926C63.9067 10.9758 64.1518 12.2465 64.642 13.4112C65.1322 14.576 65.8193 15.5863 66.7034 16.4423C67.5875 17.2982 68.6292 17.96 69.8284 18.4277Z" fill="#FFAD00"/>
<path fill-rule="evenodd" clip-rule="evenodd" d="M89.7865 19.0498C88.3509 19.0498 87.0729 18.7365 85.9525 18.11C84.8321 17.4835 83.948 16.6232 83.3002 15.529C82.6525 14.4348 82.3286 13.1906 82.3286 11.7964C82.3286 10.3846 82.6525 9.136 83.3002 8.05065C83.948 6.96529 84.8321 6.11378 85.9525 5.4961C87.0729 4.87842 88.3509 4.56958 89.7865 4.56958C91.2395 4.56958 92.5306 4.87842 93.6598 5.4961C94.789 6.11378 95.6731 6.96088 96.3121 8.03741C96.951 9.11394 97.2705 10.3669 97.2705 11.7964C97.2705 13.1906 96.951 14.4348 96.3121 15.529C95.6731 16.6232 94.789 17.4835 93.6598 18.11C92.5306 18.7365 91.2395 19.0498 89.7865 19.0498ZM89.7865 16.2173C90.5918 16.2173 91.3095 16.0408 91.9398 15.6878C92.57 15.3349 93.0646 14.8231 93.4235 14.1524C93.7823 13.4818 93.9618 12.6965 93.9618 11.7964C93.9618 10.8787 93.7823 10.089 93.4235 9.42719C93.0646 8.76539 92.57 8.25801 91.9398 7.90505C91.3095 7.55209 90.6005 7.37561 89.8127 7.37561C89.0074 7.37561 88.294 7.55209 87.6725 7.90505C87.051 8.25801 86.5565 8.76539 86.1888 9.42719C85.8212 10.089 85.6374 10.8787 85.6374 11.7964C85.6374 12.6965 85.8212 13.4818 86.1888 14.1524C86.5565 14.8231 87.051 15.3349 87.6725 15.6878C88.294 16.0408 88.9987 16.2173 89.7865 16.2173Z" fill="#FFAD00"/>
<path d="M105.674 19.0498C104.484 19.0498 103.434 18.8248 102.523 18.3747C101.613 17.9247 100.904 17.2364 100.396 16.3099C99.8885 15.3834 99.6346 14.2142 99.6346 12.8024V4.72841H102.917V12.3523C102.917 13.623 103.202 14.5716 103.771 15.1981C104.34 15.8246 105.149 16.1378 106.2 16.1378C106.97 16.1378 107.64 15.979 108.209 15.6613C108.777 15.3437 109.224 14.8672 109.548 14.2319C109.872 13.5965 110.034 12.8112 110.034 11.8759V4.72841H113.316V18.8645H110.191V17.0702C109.78 17.5826 109.272 17.9998 108.668 18.3218C107.758 18.8071 106.76 19.0498 105.674 19.0498Z" fill="#FFAD00"/>
<path fill-rule="evenodd" clip-rule="evenodd" d="M124.031 19.0497C122.893 19.0497 121.856 18.785 120.92 18.2556C120.401 17.9624 119.942 17.5868 119.541 17.1287V24.0001H116.259V4.72843H119.383V6.59422C119.801 6.0807 120.291 5.66611 120.854 5.35046C121.782 4.82984 122.841 4.56953 124.031 4.56953C125.414 4.56953 126.636 4.86955 127.695 5.46958C128.754 6.06961 129.594 6.90789 130.216 7.98442C130.837 9.06095 131.148 10.3316 131.148 11.7964C131.148 13.2612 130.837 14.5362 130.216 15.6216C129.594 16.7069 128.754 17.5496 127.695 18.1497C126.636 18.7497 125.414 19.0497 124.031 19.0497ZM123.664 16.2172C124.452 16.2172 125.156 16.0407 125.778 15.6878C126.399 15.3348 126.894 14.823 127.261 14.1524C127.629 13.4818 127.813 12.6964 127.813 11.7964C127.813 10.8787 127.629 10.0889 127.261 9.42715C126.894 8.76535 126.399 8.25797 125.778 7.90501C125.156 7.55205 124.452 7.37557 123.664 7.37557C122.876 7.37557 122.167 7.55205 121.537 7.90501C120.906 8.25797 120.408 8.76535 120.04 9.42715C119.672 10.0889 119.488 10.8787 119.488 11.7964C119.488 12.6964 119.672 13.4818 120.04 14.1524C120.408 14.823 120.906 15.3348 121.537 15.6878C122.167 16.0407 122.876 16.2172 123.664 16.2172Z" fill="#FFAD00"/>
<path fill-rule="evenodd" clip-rule="evenodd" d="M136.741 18.11C137.862 18.7365 139.14 19.0498 140.575 19.0498C142.028 19.0498 143.319 18.7365 144.449 18.11C145.578 17.4835 146.462 16.6232 147.101 15.529C147.74 14.4348 148.059 13.1906 148.059 11.7964C148.059 10.3669 147.74 9.11394 147.101 8.03741C146.462 6.96088 145.578 6.11378 144.449 5.4961C143.319 4.87842 142.028 4.56958 140.575 4.56958C139.14 4.56958 137.862 4.87842 136.741 5.4961C135.621 6.11378 134.737 6.96529 134.089 8.05065C133.441 9.136 133.117 10.3846 133.117 11.7964C133.117 13.1906 133.441 14.4348 134.089 15.529C134.737 16.6232 135.621 17.4835 136.741 18.11ZM142.729 15.6878C142.098 16.0408 141.381 16.2173 140.575 16.2173C139.787 16.2173 139.083 16.0408 138.461 15.6878C137.84 15.3349 137.345 14.8231 136.978 14.1524C136.61 13.4818 136.426 12.6965 136.426 11.7964C136.426 10.8787 136.61 10.089 136.978 9.42719C137.345 8.76539 137.84 8.25801 138.461 7.90505C139.083 7.55209 139.796 7.37561 140.602 7.37561C141.389 7.37561 142.098 7.55209 142.729 7.90505C143.359 8.25801 143.853 8.76539 144.212 9.42719C144.571 10.089 144.751 10.8787 144.751 11.7964C144.751 12.6965 144.571 13.4818 144.212 14.1524C143.853 14.8231 143.359 15.3349 142.729 15.6878Z" fill="#FFAD00"/>
<path d="M161.151 5.23138C160.267 4.79018 159.265 4.56958 158.144 4.56958C156.919 4.56958 155.838 4.81224 154.901 5.29756C154.27 5.62444 153.741 6.04538 153.312 6.5604V4.72841H150.187V18.8645H153.47V11.717C153.47 10.764 153.632 9.97428 153.956 9.34778C154.28 8.72127 154.739 8.24919 155.334 7.93152C155.93 7.61386 156.612 7.45503 157.383 7.45503C158.433 7.45503 159.252 7.76387 159.838 8.38155C160.424 8.99923 160.718 9.93457 160.718 11.1876V18.8645H164V10.764C164 9.33454 163.746 8.16536 163.239 7.25649C162.731 6.34761 162.035 5.67258 161.151 5.23138Z" fill="#FFAD00"/>
</g>
<g id="Tobe">
<path d="M3.55794 17.751C4.3951 18.5549 5.58108 18.9568 7.11587 18.9568C7.70886 18.9568 8.28441 18.8773 8.84252 18.7183C9.40062 18.5593 9.87153 18.3208 10.2552 18.0028L9.33958 15.6442C8.85124 16.0329 8.24081 16.2272 7.50829 16.2272C6.89786 16.2272 6.4226 16.0417 6.0825 15.6707C5.7424 15.2997 5.57235 14.7785 5.57235 14.1072V7.11097H9.31342V4.4609H5.57235V0H2.30219V4.4609H0V7.11097H2.30219V14.1867C2.30219 15.7591 2.72077 16.9472 3.55794 17.751Z" fill="#5C11A6"/>
<path fill-rule="evenodd" clip-rule="evenodd" d="M18.7664 18.9568C17.3362 18.9568 16.063 18.6432 14.9468 18.016C13.8306 17.3888 12.9498 16.5276 12.3045 15.4322C11.6592 14.3369 11.3366 13.0913 11.3366 11.6956C11.3366 10.2823 11.6592 9.03231 12.3045 7.94578C12.9498 6.85925 13.8306 6.00682 14.9468 5.38847C16.063 4.77012 17.3362 4.46094 18.7664 4.46094C20.214 4.46094 21.5002 4.77012 22.6252 5.38847C23.7501 6.00682 24.6309 6.85484 25.2674 7.93253C25.904 9.01022 26.2223 10.2646 26.2223 11.6956C26.2223 13.0913 25.904 14.3369 25.2674 15.4322C24.6309 16.5276 23.7501 17.3888 22.6252 18.016C21.5002 18.6432 20.214 18.9568 18.7664 18.9568ZM18.7664 16.1212C19.5686 16.1212 20.2837 15.9446 20.9116 15.5912C21.5395 15.2379 22.0322 14.7255 22.3897 14.0542C22.7472 13.3828 22.926 12.5966 22.926 11.6956C22.926 10.7769 22.7472 9.98633 22.3897 9.32382C22.0322 8.6613 21.5395 8.15337 20.9116 7.80003C20.2837 7.44669 19.5774 7.27001 18.7925 7.27001C17.9902 7.27001 17.2795 7.44669 16.6604 7.80003C16.0412 8.15337 15.5485 8.6613 15.1823 9.32382C14.816 9.98633 14.6329 10.7769 14.6329 11.6956C14.6329 12.5966 14.816 13.3828 15.1823 14.0542C15.5485 14.7255 16.0412 15.2379 16.6604 15.5912C17.2795 15.9446 17.9815 16.1212 18.7664 16.1212Z" fill="#5C11A6"/>
<path d="M32.2569 0L32.2566 6.35649C32.6557 5.9026 33.1136 5.53134 33.6303 5.24271C34.5634 4.72153 35.5968 4.46094 36.7304 4.46094C38.1083 4.46094 39.3248 4.76129 40.38 5.36197C41.4351 5.96265 42.2723 6.80184 42.8914 7.87953C43.5106 8.95722 43.8202 10.2293 43.8202 11.6956C43.8202 13.162 43.5106 14.434 42.8914 15.5117C42.2723 16.5894 41.4351 17.433 40.38 18.0425C39.3248 18.652 38.1083 18.9568 36.7304 18.9568C35.5445 18.9568 34.4893 18.6918 33.5649 18.1618C33.0036 17.84 32.5147 17.4188 32.0981 16.8983L32.0999 18.7713H28.9867V12.8087L36.5648 12.808L34.4941 14.9066L36.1898 16.6243L41.1557 11.594L36.1898 6.56373L34.4941 8.28146L36.5659 10.3794H28.9867V0H32.2569Z" fill="#5C11A6"/>
<path fill-rule="evenodd" clip-rule="evenodd" d="M50.0858 18.016C51.2456 18.6432 52.6016 18.9568 54.1539 18.9568C55.3747 18.9568 56.4604 18.7581 57.411 18.3605C58.3615 17.963 59.1507 17.3933 59.7786 16.6512L58.0257 14.6107C57.5374 15.1407 56.9793 15.5294 56.3514 15.7767C55.7236 16.0241 55.0172 16.1477 54.2324 16.1477C53.3254 16.1477 52.5232 15.9711 51.8255 15.6177C51.1279 15.2644 50.5872 14.7609 50.2035 14.1072C49.9617 13.6953 49.7961 13.2447 49.7067 12.7557H60.668C60.6855 12.5966 60.6986 12.4288 60.7073 12.2521C60.716 12.0755 60.7204 11.9165 60.7204 11.7751C60.7204 10.2911 60.4151 9.00139 59.8047 7.90603C59.1943 6.81067 58.3571 5.96265 57.2932 5.36197C56.2293 4.76129 55.0172 4.46094 53.6568 4.46094C52.2615 4.46094 51.0189 4.77012 49.9288 5.38847C48.8388 6.00682 47.9842 6.85925 47.365 7.94578C46.7459 9.03231 46.4363 10.2823 46.4363 11.6956C46.4363 13.0913 46.7546 14.3369 47.3912 15.4322C48.0278 16.5276 48.926 17.3888 50.0858 18.016ZM49.6786 10.5561C49.752 10.0229 49.9051 9.54143 50.1381 9.11181C50.4782 8.48463 50.9491 7.99437 51.5508 7.64102C52.1525 7.28768 52.8545 7.11101 53.6568 7.11101C54.4416 7.11101 55.1349 7.28768 55.7366 7.64102C56.3383 7.99437 56.8136 8.48021 57.1624 9.09856C57.4091 9.53582 57.5642 10.0217 57.6277 10.5561H49.6786Z" fill="#5C11A6"/>
</g>
</g>
</svg>
