<svg width="24" height="24" viewBox="0 0 24 24" fill="none" xmlns="http://www.w3.org/2000/svg">
<path d="M9.72843 17.4319C9.69186 17.5772 8.7778 21 3.74999 21C3.55108 21 3.36031 20.921 3.21966 20.7804C3.07901 20.6397 2.99999 20.449 2.99999 20.25C2.99999 15.2222 6.4228 14.3082 6.56812 14.2716C6.76118 14.2234 6.96551 14.2538 7.13614 14.3562C7.30677 14.4586 7.42972 14.6246 7.47796 14.8177C7.5262 15.0108 7.49576 15.2151 7.39335 15.3857C7.29093 15.5563 7.12493 15.6793 6.93187 15.7275C6.84749 15.751 4.82999 16.3407 4.53562 19.4644C7.65937 19.17 8.24999 17.1563 8.27437 17.0625C8.32409 16.8697 8.44838 16.7046 8.61989 16.6034C8.7914 16.5022 8.99608 16.4733 9.1889 16.523C9.38172 16.5727 9.54689 16.697 9.64807 16.8685C9.74925 17.04 9.77816 17.2447 9.72843 17.4375V17.4319ZM18.4472 11.1132L18 11.5604V17.0288C18.0011 17.2265 17.9629 17.4225 17.8876 17.6054C17.8122 17.7882 17.7013 17.9542 17.5612 18.0938L14.3437 21.3094C14.205 21.4492 14.0399 21.56 13.8581 21.6357C13.6763 21.7113 13.4813 21.7502 13.2844 21.75C13.1218 21.75 12.9604 21.7237 12.8062 21.6722C12.5416 21.5847 12.3067 21.4249 12.1281 21.2108C11.9495 20.9968 11.8343 20.737 11.7956 20.461L11.2922 16.8525L7.14749 12.7079L3.54093 12.2044C3.2645 12.1656 3.00437 12.0505 2.78981 11.872C2.57524 11.6934 2.41476 11.4586 2.3264 11.1938C2.23804 10.929 2.22532 10.6448 2.28966 10.3732C2.35401 10.1016 2.49286 9.8533 2.69062 9.65629L5.90624 6.43879C6.04581 6.29872 6.21185 6.18779 6.39468 6.11247C6.57751 6.03714 6.7735 5.99893 6.97124 6.00004H12.4397L12.8869 5.55286C15.3881 3.05254 18.4022 2.94473 19.5816 3.01504C19.9472 3.03727 20.2922 3.19256 20.5512 3.45162C20.8103 3.71068 20.9656 4.0556 20.9878 4.42129C21.0562 5.59786 20.9484 8.61192 18.4481 11.1132H18.4472ZM3.74999 10.7194L7.2328 11.205L10.9397 7.50004H6.97124L3.74999 10.7194ZM8.56124 12L12 15.4388L17.3859 10.0529C18.1118 9.33192 18.6749 8.46396 19.0374 7.50732C19.4 6.55068 19.5535 5.52752 19.4878 4.50661C18.4674 4.44333 17.4453 4.59851 16.4897 4.96178C15.534 5.32505 14.6669 5.88805 13.9462 6.61317L8.56124 12ZM16.5 13.0604L12.7941 16.7663L13.2816 20.25L16.5 17.0288V13.0604Z" fill="#A2A2A2"/>
</svg>
