<svg width="24" height="24" viewBox="0 0 24 24" fill="none" xmlns="http://www.w3.org/2000/svg">
<path d="M20.2499 3H14.2499C14.1351 2.99999 14.0218 3.02636 13.9187 3.07707C13.8157 3.12778 13.7256 3.20149 13.6556 3.2925L7.65557 11.0934L6.74994 10.1897C6.61063 10.0502 6.4452 9.93958 6.2631 9.8641C6.081 9.78861 5.88581 9.74976 5.68869 9.74976C5.49157 9.74976 5.29638 9.78861 5.11428 9.8641C4.93218 9.93958 4.76675 10.0502 4.62744 10.1897L3.43775 11.3803C3.29843 11.5196 3.18791 11.685 3.1125 11.867C3.0371 12.049 2.99829 12.2441 2.99829 12.4411C2.99829 12.6381 3.0371 12.8332 3.1125 13.0152C3.18791 13.1972 3.29843 13.3626 3.43775 13.5019L5.31275 15.3769L2.68775 18.0019C2.54843 18.1412 2.43791 18.3065 2.3625 18.4886C2.2871 18.6706 2.24829 18.8656 2.24829 19.0627C2.24829 19.2597 2.2871 19.4548 2.3625 19.6368C2.43791 19.8188 2.54843 19.9841 2.68775 20.1234L3.87744 21.3122C4.15872 21.5933 4.5401 21.7512 4.93775 21.7512C5.33541 21.7512 5.71679 21.5933 5.99806 21.3122L8.62307 18.6872L10.4981 20.5622C10.6374 20.7017 10.8028 20.8123 10.9849 20.8878C11.167 20.9633 11.3622 21.0021 11.5593 21.0021C11.7564 21.0021 11.9516 20.9633 12.1337 20.8878C12.3158 20.8123 12.4813 20.7017 12.6206 20.5622L13.8103 19.3716C13.9496 19.2323 14.0601 19.0669 14.1355 18.8849C14.2109 18.7029 14.2497 18.5078 14.2497 18.3108C14.2497 18.1138 14.2109 17.9187 14.1355 17.7367C14.0601 17.5547 13.9496 17.3893 13.8103 17.25L12.9065 16.3463L20.7074 10.3463C20.7987 10.276 20.8726 10.1857 20.9233 10.0823C20.974 9.97887 21.0002 9.86517 20.9999 9.75V3.75C20.9999 3.55109 20.9209 3.36032 20.7803 3.21967C20.6396 3.07902 20.4489 3 20.2499 3ZM4.93963 20.25L3.74994 19.0613L6.37494 16.4363L7.56369 17.625L4.93963 20.25ZM11.5593 19.5L4.49994 12.4416L5.69056 11.25L12.7499 18.3103L11.5593 19.5ZM19.4999 9.38062L11.8368 15.2756L10.8112 14.25L15.5306 9.53063C15.6712 9.38989 15.7501 9.19907 15.75 9.00014C15.7499 8.8012 15.6708 8.61045 15.5301 8.46984C15.3894 8.32924 15.1985 8.2503 14.9996 8.25038C14.8007 8.25047 14.6099 8.32958 14.4693 8.47031L9.74994 13.1887L8.72525 12.1631L14.6193 4.5H19.4999V9.38062Z" fill="#A2A2A2"/>
</svg>
